<svg width="48" height="48" viewBox="0 0 48 48" fill="none" xmlns="http://www.w3.org/2000/svg">
<path d="M23.8953 17.6277C24.3004 17.6277 24.6286 17.313 24.6286 16.9246V15.4769C24.6286 15.0885 24.3004 14.7738 23.8953 14.7738C23.4903 14.7738 23.1621 15.0885 23.1621 15.4769V16.9246C23.1621 17.313 23.4903 17.6277 23.8953 17.6277ZM19.6182 40.1719C19.2133 40.1719 18.885 40.4867 18.885 40.875C18.885 41.2633 19.2133 41.5781 19.6182 41.5781C20.0231 41.5781 20.3514 41.2633 20.3514 40.875C20.3514 40.4867 20.0232 40.1719 19.6182 40.1719ZM46.335 36.5053H45.981C45.8738 34.8558 45.3535 33.2562 44.4584 31.8444C44.248 31.5125 43.7968 31.4072 43.451 31.6089C43.105 31.8106 42.995 32.2432 43.2054 32.575C43.9608 33.7665 44.4072 35.1139 44.5122 36.5053H26.187C26.5297 31.9449 30.5083 28.3351 35.3496 28.3351C37.4587 28.3351 39.4421 29.0016 41.0851 30.2627C41.4015 30.5055 41.8627 30.4563 42.1157 30.1531C42.3687 29.8499 42.3175 29.4074 42.0015 29.1648C40.8951 28.3157 39.6204 27.6934 38.2675 27.3234C38.3184 27.1119 38.3459 26.8946 38.3459 26.6749C38.3459 25.0899 37.0016 23.8005 35.3495 23.8005C33.6973 23.8005 32.3532 25.0899 32.3532 26.6749C32.3532 26.8931 32.3803 27.1087 32.4305 27.3188C31.3884 27.6039 30.4116 28.0386 29.5257 28.5955L25.7591 27.3826C25.23 27.2123 24.8745 26.7395 24.8745 26.206V25.6191C27.7832 23.9182 29.7288 20.8511 29.7288 17.3573V16.5669C31.0912 16.523 32.1856 15.447 32.1856 14.13C32.1856 12.813 31.0912 11.737 29.7288 11.6931V4.85138C29.7288 2.17631 27.4548 0 24.6598 0H14.5765C11.7815 0 9.5076 2.17631 9.5076 4.85138V11.693C8.14519 11.7369 7.05075 12.8129 7.05075 14.1299C7.05075 15.4469 8.14519 16.5229 9.5076 16.5668V17.3571C9.5076 20.8511 11.4532 23.9182 14.362 25.6191V26.2059C14.362 26.7393 14.0066 27.2122 13.4775 27.3825L4.65296 30.2241C1.86988 31.1196 0 33.6096 0 36.4201V47.2969C0 47.6853 0.328185 48 0.733211 48C1.13824 48 1.46642 47.6853 1.46642 47.2969V36.42C1.46642 34.2145 2.93451 32.2602 5.11957 31.5572L6.53565 31.1012C7.17931 32.0384 8.12584 33.8363 7.97 36.1441C7.85044 37.9213 7.12847 39.2934 6.54484 40.1301C6.2451 40.5575 6.08653 41.0553 6.08653 41.5697V47.2969C6.08653 47.6853 6.41472 48 6.81974 48C7.22477 48 7.55295 47.6853 7.55295 47.2969V41.5697C7.55295 41.3359 7.625 41.1095 7.76255 40.9134C8.44728 39.932 9.29281 38.3236 9.4334 36.2347C9.59988 33.7687 8.69725 31.8018 7.9657 30.6409L9.4814 30.1529C11.2303 35.5538 14.4832 40.391 18.885 44.1485V47.2969C18.885 47.6853 19.2132 48 19.6182 48C20.0232 48 20.3514 47.6853 20.3514 47.2969V44.1475C21.3794 43.2695 22.3513 42.3262 23.2536 41.3317C23.5486 41.586 23.9373 41.7422 24.3641 41.7422H30.9406V42.1232C30.9406 42.779 31.2261 43.3717 31.6835 43.7944V47.2969C31.6835 47.6853 32.0117 48 32.4167 48C32.8218 48 33.1499 47.6853 33.1499 47.2969V44.4358C33.4704 44.4654 37.6296 44.4318 37.7702 44.4073V47.2969C37.7702 47.6853 38.0984 48 38.5034 48C38.9085 48 39.2367 47.6853 39.2367 47.2969V43.5608C39.563 43.165 39.7586 42.6658 39.7586 42.1233V41.7423H46.3351C47.2532 41.7423 48 41.026 48 40.1457V38.1029C47.9999 37.2219 47.253 36.5053 46.335 36.5053ZM35.3496 25.2066C36.1932 25.2066 36.8795 25.8652 36.8795 26.6747C36.8795 26.7958 36.8633 26.9152 36.8332 27.031C36.3431 26.9646 35.8476 26.9287 35.3495 26.9287C34.8458 26.9287 34.3504 26.9633 33.8653 27.0284C33.8356 26.9135 33.8196 26.795 33.8196 26.6747C33.8196 25.8652 34.506 25.2066 35.3496 25.2066ZM29.7288 13.1003C30.2823 13.1427 30.7192 13.5883 30.7192 14.1298C30.7192 14.6713 30.2823 15.1169 29.7288 15.1593V13.1003ZM9.50769 15.1594C8.95417 15.117 8.51727 14.6714 8.51727 14.1299C8.51727 13.5884 8.95417 13.1428 9.50769 13.1004V15.1594ZM10.9741 17.3571V11.0989C12.0503 10.9106 13.0874 10.5778 14.0654 10.1063C14.9197 9.69441 15.7172 9.18103 16.4399 8.57794C17.5245 9.21009 18.6739 9.74278 19.8599 10.1628C20.24 10.2973 20.6615 10.1111 20.8018 9.74681C20.9422 9.3825 20.7479 8.97816 20.368 8.84363C19.1957 8.42831 18.0619 7.89422 16.9985 7.25606C16.573 7.0005 16.0174 7.04803 15.6477 7.37138C14.9733 7.9605 14.2194 8.45794 13.4066 8.84972C12.634 9.22228 11.8187 9.49509 10.974 9.66525V4.85119C10.974 2.95153 12.59 1.40606 14.5765 1.40606H24.6598C26.6463 1.40606 28.2624 2.95153 28.2624 4.85119V9.861C26.6925 9.98953 25.1171 9.92531 23.57 9.66862C23.1712 9.60291 22.7916 9.85903 22.7225 10.2416C22.6536 10.6243 22.9211 10.9882 23.32 11.0543C24.95 11.3246 26.6087 11.3976 28.2624 11.2721V17.3569C28.2624 21.9163 24.3846 25.6256 19.6183 25.6256C14.8518 25.6259 10.9741 21.9165 10.9741 17.3571ZM21.9213 30.7402L23.2925 30.3125V32.5002L21.9213 32.0724C21.9878 31.8614 22.024 31.6379 22.024 31.4064C22.024 31.175 21.9878 30.9512 21.9213 30.7402ZM21.0297 29.5397C20.6329 29.263 20.1453 29.0993 19.6183 29.0993C19.0912 29.0993 18.6037 29.263 18.2069 29.5397L15.9382 28.8318C15.7542 28.7744 15.5599 28.7666 15.3744 28.8022L14.8075 28.2587C15.4092 27.7901 15.788 27.092 15.8237 26.3244C16.996 26.7803 18.2769 27.0322 19.6183 27.0322C20.9597 27.0322 22.2406 26.7803 23.413 26.3244C23.4486 27.0902 23.8257 27.7869 24.425 28.2555L23.8561 28.801C23.6725 28.7668 23.4805 28.7751 23.2986 28.8318L21.0297 29.5397ZM20.5576 31.4062C20.5576 31.9029 20.1361 32.307 19.6183 32.307C19.1002 32.307 18.6789 31.9028 18.6789 31.4062C18.6789 30.9097 19.1003 30.5055 19.6183 30.5055C20.1362 30.5055 20.5576 30.9096 20.5576 31.4062ZM17.315 32.0723L15.9438 32.5002V30.3123L17.315 30.7402C17.2485 30.9512 17.2124 31.1747 17.2124 31.4062C17.2124 31.6378 17.2485 31.8613 17.315 32.0723ZM22.6992 38.1028V39.7835C21.7552 40.8846 20.7221 41.9273 19.6177 42.8904C15.5291 39.3262 12.5083 34.7751 10.8718 29.7051L13.3948 28.8926L14.4775 29.9309V32.9635C14.4775 33.3049 14.6496 33.6285 14.9377 33.829C15.2264 34.0301 15.6012 34.086 15.9381 33.9808L18.2068 33.2729C18.6036 33.5496 19.0913 33.7133 19.6182 33.7133C20.1451 33.7133 20.6329 33.5496 21.0296 33.2729L23.2982 33.9809C23.6351 34.0859 24.0099 34.0302 24.2987 33.8291C24.5868 33.6285 24.7589 33.305 24.7589 32.9636V29.9241L25.8362 28.8909L28.1393 29.6326C26.1777 31.3657 24.8935 33.7936 24.7179 36.5053H24.364C23.4461 36.5053 22.6992 37.2219 22.6992 38.1028ZM38.2921 42.1232C38.2921 42.6282 37.8637 43.039 37.3371 43.039H33.362C32.8353 43.039 32.4069 42.6282 32.4069 42.1232V40.3519H38.292L38.2921 42.1232ZM46.5335 40.1456C46.5335 40.2505 46.4444 40.3359 46.335 40.3359H39.7585C39.7841 39.5777 39.1378 38.9459 38.3487 38.9456H32.3504C31.5612 38.9444 30.9168 39.5781 30.9406 40.3359H24.3641C24.2547 40.3359 24.1657 40.2505 24.1657 40.1456V38.1028C24.1657 37.9973 24.2547 37.9116 24.3641 37.9116H46.3349C46.4443 37.9116 46.5334 37.9973 46.5334 38.1028L46.5335 40.1456ZM19.6182 37.3594C19.2133 37.3594 18.885 37.6742 18.885 38.0625C18.885 38.4508 19.2133 38.7656 19.6182 38.7656C20.0231 38.7656 20.3514 38.4508 20.3514 38.0625C20.3514 37.6742 20.0232 37.3594 19.6182 37.3594ZM15.3411 14.7738C14.9361 14.7738 14.6079 15.0885 14.6079 15.4769V16.9246C14.6079 17.313 14.9361 17.6277 15.3411 17.6277C15.7461 17.6277 16.0743 17.313 16.0743 16.9246V15.4769C16.0743 15.0885 15.746 14.7738 15.3411 14.7738ZM19.6182 34.5469C19.2133 34.5469 18.885 34.8617 18.885 35.25C18.885 35.6383 19.2133 35.9531 19.6182 35.9531C20.0231 35.9531 20.3514 35.6383 20.3514 35.25C20.3514 34.8617 20.0232 34.5469 19.6182 34.5469ZM21.5391 20.7834C21.3054 20.4664 20.8479 20.3909 20.5172 20.6152C20.3555 20.7247 20.0128 20.9058 19.5626 20.8906C19.1613 20.8768 18.8623 20.7124 18.7198 20.6155C18.3892 20.3909 17.9317 20.466 17.6977 20.7829C17.4636 21.0998 17.5417 21.5386 17.8722 21.763C18.1945 21.982 18.8914 22.2977 19.6176 22.2977C20.4478 22.2977 21.0639 21.9667 21.3635 21.7634C21.6943 21.5393 21.7729 21.1005 21.5391 20.7834Z" fill="#654062"/>
</svg>
